<svg xmlns="http://www.w3.org/2000/svg" xmlns:xlink="http://www.w3.org/1999/xlink" version="1.1" width="1000" height="1000" viewBox="0 0 1000 1000" xml:space="preserve">
<desc>Created with Fabric.js 3.5.0</desc>
<defs>
</defs>
<rect x="0" y="0" width="100%" height="100%" fill="rgba(255,255,255,0)"/>
<g transform="matrix(7.5758 0 0 7.5758 500.0025 500.0008)" id="580935">
<g style="" vector-effect="non-scaling-stroke">
		<g transform="matrix(0.245 0 0 0.245 -47.1375 -4.0541)">
<path style="stroke: none; stroke-width: 1; stroke-dasharray: none; stroke-linecap: butt; stroke-dashoffset: 0; stroke-linejoin: miter; stroke-miterlimit: 4; is-custom-font: none; font-file-url: none; fill: rgb(255,255,255); fill-rule: nonzero; opacity: 1;" transform=" translate(-52.5, -56.15)" d="M 48.6 22.5 L 31.8 62.2 h 34.2 L 48.6 22.5 z M 28.6 70.3 c -3.2 7.4 -9.6 21.7 -14.9 42 c -1.9 -0.3 -3.5 -0.9 -6.6 -0.9 c -3.1 0 -5 0.6 -7.1 0.9 C 14.3 81.2 38 28.9 49.4 0 c 1.3 0.2 2.3 0.5 4 0.5 c 1.4 0 2.3 -0.2 3.5 -0.5 c 12.3 33.7 47.8 111.7 48.1 112.3 c -2.7 -0.5 -5.5 -0.9 -9.5 -0.9 c -4.2 0 -7.2 0.5 -10.3 0.9 c -5.6 -19.2 -12.2 -33.2 -16.2 -42 H 28.6 z" stroke-linecap="round"/>
</g>
		<g transform="matrix(0.245 0 0 0.245 -22.8237 0.2962)">
<path style="stroke: none; stroke-width: 1; stroke-dasharray: none; stroke-linecap: butt; stroke-dashoffset: 0; stroke-linejoin: miter; stroke-miterlimit: 4; is-custom-font: none; font-file-url: none; fill: rgb(255,255,255); fill-rule: nonzero; opacity: 1;" transform=" translate(-151.7175, -73.9)" d="M 172.4 66.6 c 0 -5.3 0 -26.6 -19.2 -26.6 c -14 0 -20.7 10.6 -22.2 26.6 H 172.4 z M 130.9 73.3 c 0 4.5 0 13.6 4.3 21 c 7.4 12.1 17.8 12.5 22.5 12.5 c 15.7 0 23.1 -9.6 25.5 -13 l 1.9 0.4 c -1 4.5 -1 7.1 -1.1 9.6 c -7.1 6.7 -16.8 10.5 -29.8 10.5 c -24.4 0 -39.3 -15.4 -39.3 -40.1 c 0 -22.1 12.2 -40.7 38.5 -40.7 c 35.8 0 35.3 31.1 35.1 39.8 H 130.9 z" stroke-linecap="round"/>
</g>
		<g transform="matrix(0.245 0 0 0.245 -3.2114 0.2962)">
<path style="stroke: none; stroke-width: 1; stroke-dasharray: none; stroke-linecap: butt; stroke-dashoffset: 0; stroke-linejoin: miter; stroke-miterlimit: 4; is-custom-font: none; font-file-url: none; fill: rgb(255,255,255); fill-rule: nonzero; opacity: 1;" transform=" translate(-231.75, -73.9)" d="M 249.6 52.1 c -0.6 -2.4 -1.6 -6.4 -6.2 -9.6 c -3.4 -2.4 -7.8 -2.7 -10.4 -2.7 c -9.8 0 -14.9 5.1 -14.9 12 c 0 9.3 9.5 12.7 15.1 14.1 c 14.3 3.7 25.8 6.7 25.8 22.8 c 0 12.2 -8.5 25.8 -30.8 25.8 c -13 0 -22 -5.5 -23.7 -6.7 c 2.1 -3.9 3.4 -10.7 3.7 -12.8 l 1.9 -0.5 c 1.1 2.7 2.7 7.1 8.7 10.6 c 4 2.4 8.2 3 11.7 3 c 8.4 0 16.2 -4 16.2 -13.2 c 0 -9.1 -5.5 -10.9 -22.3 -16.4 c -6.9 -2.3 -18.3 -7.2 -18.3 -21.3 c 0 -9.1 5.6 -23.9 27.8 -23.9 c 11.1 0 17.5 3.4 21.2 5.3 c -1.6 4.2 -2.7 8 -3.2 13.5 H 249.6 z" stroke-linecap="round"/>
</g>
		<g transform="matrix(0.245 0 0 0.245 17.5557 0.2962)">
<path style="stroke: none; stroke-width: 1; stroke-dasharray: none; stroke-linecap: butt; stroke-dashoffset: 0; stroke-linejoin: miter; stroke-miterlimit: 4; is-custom-font: none; font-file-url: none; fill: rgb(255,255,255); fill-rule: nonzero; opacity: 1;" transform=" translate(-316.5, -73.9)" d="M 291.5 73.5 c 0 22.3 9.8 34.6 24.5 34.6 c 15.4 0 25.5 -13.3 25.5 -34.5 c 0 -12.5 -3.9 -33.8 -24.7 -33.8 C 291.5 39.8 291.5 68.6 291.5 73.5 M 357.9 73 c 0 25.5 -17.6 41.5 -42 41.5 c -17 0 -40.8 -7.7 -40.8 -40.6 c 0 -25 16.7 -40.6 40.8 -40.6 C 346.3 33.4 357.9 53.4 357.9 73" stroke-linecap="round"/>
</g>
		<g transform="matrix(0.245 0 0 0.245 42.0483 5.1594)">
<path style="stroke: none; stroke-width: 1; stroke-dasharray: none; stroke-linecap: butt; stroke-dashoffset: 0; stroke-linejoin: miter; stroke-miterlimit: 4; is-custom-font: none; font-file-url: none; fill: rgb(255,255,255); fill-rule: nonzero; opacity: 1;" transform=" translate(-416.45, -93.75)" d="M 399.4 49.6 c -3.2 4 -6.6 9.8 -6.6 25.7 c 0 14.1 3.2 19.4 6.6 23.4 c 4.1 5 9.6 7.9 17 7.9 c 22.9 0 22.9 -27.1 22.9 -32.3 c 0 -24.2 -11.6 -33 -22 -33 C 408.7 41.2 403.1 44.9 399.4 49.6 M 419.3 114.7 c -15.1 0 -23.6 -8.3 -26.2 -14.9 c 0 25.2 -0.2 39.8 0.8 54.5 c -2.4 -0.6 -4.5 -0.9 -8.4 -0.9 c -4 0 -6.1 0.3 -8.6 0.9 c 1.3 -20.8 1.8 -41.9 1.8 -62.7 c 0 -14.6 -0.3 -34.3 -0.8 -57.6 c 2.2 0.5 4.8 0.9 7.9 0.9 c 2.9 0 5.6 -0.5 7.9 -0.9 c -0.6 8.8 -0.6 11.2 -0.6 14.6 c 2.6 -4.2 9.5 -15.4 27.3 -15.4 c 16 0 35.6 11.7 35.6 40.3 C 455.9 98.8 440.3 114.7 419.3 114.7" stroke-linecap="round"/>
</g>
		<g transform="matrix(0.245 0 0 0.245 -22.2759 -13.8903)">
<rect style="stroke: none; stroke-width: 1; stroke-dasharray: none; stroke-linecap: butt; stroke-dashoffset: 0; stroke-linejoin: miter; stroke-miterlimit: 4; is-custom-font: none; font-file-url: none; fill: rgb(255,255,255); fill-rule: nonzero; opacity: 1;" x="-22.15" y="-2.5" rx="0" ry="0" width="44.3" height="5"/>
</g>
		<g transform="matrix(0.245 0 0 0.245 57.4265 7.5265)">
<path style="stroke: none; stroke-width: 1; stroke-dasharray: none; stroke-linecap: butt; stroke-dashoffset: 0; stroke-linejoin: miter; stroke-miterlimit: 4; is-custom-font: none; font-file-url: none; fill: rgb(255,255,255); fill-rule: nonzero; opacity: 1;" transform=" translate(-479.2, -103.4)" d="M 477.2 98.1 c 0 1.6 0 3 0 4.4 c 1.3 0 4.3 0 4.3 -2.3 C 481.5 98.1 479.2 98.1 477.2 98.1 M 484.9 109.1 c -0.4 0 -0.7 -0.1 -1.2 -0.1 c -0.4 0 -0.8 0.1 -1.5 0.1 c -2 -2.9 -3.6 -4.5 -4.7 -5.8 h -0.4 c 0 1.8 0 3.2 0.2 5.8 c -0.5 0 -0.7 -0.1 -1.3 -0.1 c -0.6 0 -0.8 0.1 -1.1 0.1 c 0.1 -1.3 0.2 -2.7 0.2 -6.2 c 0 -3 -0.1 -4.4 -0.1 -5.7 c 0.9 0 1.5 0 2.9 0 c 2.9 0 5.9 0 5.9 2.8 c 0 2.5 -2.7 2.9 -3.9 3 c 0.8 1.1 4.4 5.1 5.1 5.9 L 484.9 109.1 z M 479.2 94.8 c -4.8 0 -8.5 3.8 -8.5 8.6 c 0 4.9 3.6 8.6 8.5 8.6 c 4.9 0 8.5 -3.7 8.5 -8.6 C 487.8 98.7 484.3 94.8 479.2 94.8 M 479.2 92.9 c 5.9 0 10.5 4.7 10.5 10.5 c 0 5.9 -4.7 10.5 -10.5 10.5 c -5.8 0 -10.5 -4.6 -10.5 -10.5 C 468.8 97.5 473.5 92.9 479.2 92.9" stroke-linecap="round"/>
</g>
</g>
</g>
</svg>